# xmcd
#
# Track frame offsets:
#	150
#	13459
#	28648
#	41668
#	56479
#	69495
#	84736
#	97799
#	112880
#	131329
#	147349
#	164831
#
# Disc length: 2434 seconds
#
# Revision: 1
# Processed by: cddbd v1.5.2PL0 Copyright (c) Steve Scherf et al.
# Submitted via: EZCDAudioConverter 8.2.2.1
#
DISCID=a209800c
DTITLE=Joey and Rory - Album Number Two
DYEAR=2010
DGENRE=Country
TTITLE0=Joey and Rory - Album Number Two
TTITLE1=Joey and Rory - That's Important To Me
TTITLE2=Joey and Rory - All You Need Is Me
TTITLE3=Joey and Rory - Born To Be Your Woman
TTITLE4=Joey and Rory - Baby I'll Come Back To You
TTITLE5=Joey and Rory - God Help My Man
TTITLE6=Joey and Rory - The Horse Nobody Could Ride
TTITLE7=Joey and Rory - Farm To Fame
TTITLE8=Joey and Rory - Where Jesus Is
TTITLE9=Joey and Rory - You Ain't Right
TTITLE10=Joey and Rory - My Ol' Man
TTITLE11=Joey and Rory Featuring The Zac Brown Band - This Song's For You
EXTD=
EXTT0=
EXTT1=
EXTT2=
EXTT3=
EXTT4=
EXTT5=
EXTT6=
EXTT7=
EXTT8=
EXTT9=
EXTT10=
EXTT11=
PLAYORDER=
